<svg version="1.1" xmlns="http://www.w3.org/2000/svg" style="display: block;" viewBox="0 0 2048 1364" width="1000" height="666">
<path transform="translate(0,0)" fill="rgb(72,153,158)" d="M 846.157 307.751 C 844.284 312.562 841.135 318.98 843.635 324.077 C 844.951 326.761 847.799 329.008 850.652 329.846 C 854.1 330.858 857.564 329.593 860.47 327.736 C 868.504 322.599 873.415 313.779 880.96 308.193 C 907.234 307.424 933.658 308.045 959.946 308.07 L 1103.64 308.112 L 1195.7 308.093 C 1212.37 308.087 1229.51 307.105 1246.09 308.505 C 1253.15 309.102 1260.24 309.794 1265.67 314.885 C 1271.62 320.477 1273.36 328.513 1274.93 336.194 C 1307.78 341.467 1339.25 366.376 1358.3 392.736 C 1380.73 423.785 1389.11 465.457 1382.97 503.05 C 1376.5 542.622 1354.49 576.545 1322.01 599.865 C 1311.97 607.076 1300.94 613.538 1289.11 617.291 C 1290.19 633.712 1290.73 650.63 1289.51 667.058 C 1326.68 666.484 1363.88 666.642 1401.06 666.584 C 1420.48 666.554 1441.93 664.626 1461.02 667.662 C 1471.11 669.267 1480.13 672.331 1487.52 679.562 C 1500.72 692.481 1502.14 706.034 1502.19 723.656 L 1502.25 844.993 C 1502.24 865.505 1504.62 893.371 1500.27 913.245 C 1498.62 920.826 1494.12 928.067 1488.71 933.546 C 1482.37 939.963 1474.93 944.057 1466.15 946.092 C 1451.88 949.403 1434.96 947.797 1420.33 947.77 C 1394.5 947.722 1368.62 947.382 1342.8 947.808 C 1328.55 960.887 1299.34 992.881 1284.93 1001.29 C 1279.76 1004.31 1273.97 1006.03 1267.96 1005.7 C 1259.68 1005.26 1252.73 1001.25 1247.29 995.139 C 1235.4 981.769 1239.41 964.715 1238.24 948.29 C 1232.72 948.131 1227.04 948.298 1221.77 946.484 C 1218.7 970.182 1212.27 999.921 1192.28 1015.15 C 1173.13 1029.74 1146.59 1026.12 1123.94 1026 C 1124.29 1027.83 1124.7 1029.65 1125.17 1031.46 C 1139.24 1084.29 1218.62 1070.61 1257.2 1093.6 C 1267.03 1099.46 1271.67 1106.37 1274.53 1117.27 C 1273.7 1120.96 1272.76 1124.7 1271.34 1128.21 C 1264.93 1143.98 1246.31 1153.01 1231.44 1159.15 C 1127.42 1202.11 860.655 1201.83 756.164 1158.15 C 742.9 1152.61 724.857 1144.01 719.49 1129.6 C 717.895 1125.32 717.783 1120.88 719.707 1116.67 C 728.063 1098.43 765.915 1094.3 783.572 1087.74 C 815.706 1075.8 833.711 1057.34 847.965 1026.16 C 805.455 1025.01 762.66 1025.82 720.131 1025.88 C 702.617 1025.91 683.295 1027.91 666.066 1025.5 C 660.551 1024.73 655.276 1022.59 651.052 1018.91 C 647.57 1015.88 643.893 1010.19 644.454 1005.39 C 645.668 995.004 651.611 983.003 655.01 972.999 C 659.624 959.229 663.865 945.336 667.729 931.337 C 680.017 887.717 687.153 841.875 691.924 796.86 C 696.123 757.239 697.335 717.734 697.945 677.93 C 699.744 598.148 695.691 518.341 685.818 439.152 C 682.367 412.394 677.81 385.791 672.158 359.41 C 669.968 349.403 663.395 333.861 663.054 325.017 C 662.891 320.766 664.026 317.359 667.017 314.293 C 670.064 311.168 673.95 309.358 678.227 308.661 C 694.601 305.993 713.953 307.909 730.603 307.949 C 769.08 308.044 807.695 308.704 846.157 307.751 z M 810.999 1124.56 C 842.818 1129.75 874.263 1134.15 906.444 1136.5 C 983.903 1142.16 1118.98 1139.81 1192.15 1119.09 C 1153.71 1109.03 1107.99 1102.35 1085.89 1065.08 C 1078.68 1052.92 1075.37 1039.78 1072.61 1026.09 C 1016.52 1024.77 960.15 1025.94 904.035 1025.98 C 891.268 1066.58 874.28 1093.39 835.707 1113.51 C 827.603 1117.74 819.273 1120.8 810.999 1124.56 z M 710.266 944.425 C 706.217 945.762 704.247 947.281 702.308 951.132 C 697.656 960.37 689.125 983.323 690.411 993.1 C 692.156 996.077 694.7 997.025 697.925 997.821 C 709.822 1000.76 725.689 999.448 738.042 998.96 C 749.547 992.683 752.065 978.403 755.538 966.555 C 757.129 961.128 759.318 954.343 756.544 949.002 C 755.511 947.013 753.774 945.86 751.634 945.172 C 740.201 941.497 722.369 944.117 710.266 944.425 z M 758.739 537.413 C 751.465 537.844 740.898 537.063 735.788 543.167 C 729.782 550.341 733.536 585.724 735.044 595.697 C 735.605 599.409 736.637 605.539 739.918 607.823 C 748.656 613.905 762.665 611.347 772.626 610.392 C 779.799 610.39 788.614 611.476 793.998 605.745 C 799.566 599.819 798.999 589.924 798.47 582.438 C 797.658 570.943 799.266 547.569 789.895 539.988 C 782.947 534.366 767.747 535.987 759.46 537.257 C 759.217 537.295 758.979 537.361 758.739 537.413 z M 732.433 819.39 C 725.064 824.38 723.452 830.457 721.859 838.881 C 720.221 847.542 714.175 877.513 719.269 884.497 C 722.157 888.457 729.806 889.495 734.382 889.885 C 744.479 890.747 755.559 890.209 765.689 889.709 C 770.324 887.089 775.676 884.596 777.269 879.059 C 780.081 869.285 785.506 833.534 780.736 824.936 C 779.173 822.118 772.488 820.514 769.516 819.964 C 757.726 817.783 744.423 819.12 732.433 819.39 z M 745.903 683.477 C 741.472 684.509 738.687 687.879 735.762 691.155 C 734.752 702.873 728.637 739.58 735.652 748.133 C 739.496 752.82 745.65 753.923 751.363 754.237 C 761.933 754.818 773.643 755.417 784.017 753.348 C 788.238 752.131 790.513 751.03 792.71 747.106 C 797.531 738.494 799.753 703.425 796.766 693.863 C 795.753 690.622 793.969 686.967 790.781 685.386 C 782.971 681.513 755.338 682.43 745.903 683.477 z M 728.348 385.192 C 724.603 387.638 722.077 389.599 721.113 394.151 C 718.598 406.018 722.994 447.909 729.538 457.991 C 740.817 466.273 767.479 461.235 780.759 460.467 C 784.219 458.888 787.209 456.366 788.669 452.751 C 792.839 442.425 787.197 405.45 784.734 393.583 C 782.106 390.683 779.557 387.652 776.455 385.242 C 761.087 383.953 743.693 383.807 728.348 385.192 z"/>
<path transform="translate(0,0)" fill="rgb(0,0,0)" d="M 1101.22 508.506 C 1098.66 524.325 1093.14 539.517 1084.93 553.279 C 1065.71 586.432 1034.1 610.586 997.065 620.422 C 960.467 629.829 919.635 624.882 887.071 605.515 C 854.25 585.997 831.526 554.704 822.197 517.768 C 812.507 479.4 817.276 435.132 837.816 400.988 C 856.893 368.808 887.989 345.54 924.244 336.319 C 961.178 327.127 1001.78 331.986 1034.46 351.809 C 1070.8 373.847 1090.89 407.903 1100.79 448.358 C 1110.74 411.418 1129.27 378.947 1161.41 356.873 C 1195.04 333.785 1235.38 328.799 1274.93 336.194 C 1307.78 341.467 1339.25 366.376 1358.3 392.736 C 1380.73 423.785 1389.11 465.457 1382.97 503.05 C 1376.5 542.622 1354.49 576.545 1322.01 599.865 C 1311.97 607.076 1300.94 613.538 1289.11 617.291 C 1284.43 618.723 1279.71 620.014 1274.95 621.163 C 1238.92 629.837 1199.02 624.517 1167.33 605.047 C 1131.64 583.123 1110.75 548.609 1101.22 508.506 z"/>
<path transform="translate(0,0)" fill="rgb(254,253,247)" d="M 952.131 364.531 C 958.762 364.042 965.423 364.131 972.039 364.798 C 1033.02 370.947 1078.33 424.027 1074.84 485.213 C 1071.36 546.399 1020.3 593.984 959.019 593.162 C 897.739 592.339 847.977 543.401 846.131 482.144 C 844.286 420.886 891.011 369.041 952.131 364.531 z"/>
<path transform="translate(0,0)" fill="rgb(0,0,0)" d="M 960.024 433.227 C 970.479 432.611 980.694 434.076 990.011 439.116 C 1001.75 445.465 1010.27 456.771 1013.86 469.559 C 1017.82 483.672 1016.22 500.52 1008.98 513.337 C 1001.03 527.407 989.286 534.17 974.177 538.364 C 963.226 539.823 951.947 538.064 942.253 532.646 C 930.593 526.13 922.355 514.838 918.901 502.012 C 914.87 487.047 916.353 470.635 924.346 457.204 C 932.629 443.285 944.753 436.962 960.024 433.227 z"/>
<path transform="translate(0,0)" fill="rgb(254,253,247)" d="M 1237.17 364.935 C 1299.9 362.899 1352.46 411.97 1354.74 474.69 C 1357.01 537.409 1308.14 590.161 1245.43 592.676 C 1182.38 595.204 1129.28 546.012 1127 482.953 C 1124.71 419.894 1174.1 366.983 1237.17 364.935 z"/>
<path transform="translate(0,0)" fill="rgb(0,0,0)" d="M 1222.06 433.192 C 1232.48 432.341 1242.91 434.661 1251.98 439.847 C 1263.93 446.775 1272.1 458.702 1275.41 472 C 1279.02 486.528 1276.69 501.898 1268.93 514.701 C 1260.57 528.329 1248.45 535.242 1233.29 538.978 C 1221.86 539.423 1211.91 538.043 1201.95 532.042 C 1190.42 524.983 1182.27 513.532 1179.37 500.33 C 1175.95 485.437 1178.05 468.991 1186.26 455.991 C 1194.81 442.437 1206.89 436.528 1222.06 433.192 z"/>
<path transform="translate(0,0)" fill="rgb(0,0,0)" d="M 1289.51 667.058 C 1326.68 666.484 1363.88 666.642 1401.06 666.584 C 1420.48 666.554 1441.93 664.626 1461.02 667.662 C 1471.11 669.267 1480.13 672.331 1487.52 679.562 C 1500.72 692.481 1502.14 706.034 1502.19 723.656 L 1502.25 844.993 C 1502.24 865.505 1504.62 893.371 1500.27 913.245 C 1498.62 920.826 1494.12 928.067 1488.71 933.546 C 1482.37 939.963 1474.93 944.057 1466.15 946.092 C 1451.88 949.403 1434.96 947.797 1420.33 947.77 C 1394.5 947.722 1368.62 947.382 1342.8 947.808 C 1328.55 960.887 1299.34 992.881 1284.93 1001.29 C 1279.76 1004.31 1273.97 1006.03 1267.96 1005.7 C 1259.68 1005.26 1252.73 1001.25 1247.29 995.139 C 1235.4 981.769 1239.41 964.715 1238.24 948.29 C 1232.72 948.131 1227.04 948.298 1221.77 946.484 C 1215.82 942.859 1209.99 939.962 1204.62 935.374 C 1193.03 925.45 1189.73 912.247 1188.62 897.602 C 1186.39 867.936 1188.2 830.763 1188.2 800.218 L 1188.19 745.839 C 1188.2 733.178 1187.52 719.848 1189.76 707.349 C 1191.33 698.663 1195.24 690.57 1201.06 683.939 C 1222.9 659.32 1260.33 668.956 1289.51 667.058 z"/>
<path transform="translate(0,0)" fill="rgb(241,155,57)" d="M 1236.4 695.415 C 1284.4 694.822 1332.49 695.341 1380.5 695.317 C 1402.76 695.306 1436.1 693.374 1457.36 696 C 1461.29 696.484 1463.81 697.454 1466.79 700.125 C 1472.18 704.95 1473.39 710.37 1473.79 717.245 C 1474.53 729.846 1474 742.736 1474.01 755.372 L 1474.04 825.827 L 1474.03 874.3 C 1474.02 883.419 1474.63 893.123 1473.49 902.169 C 1472.99 906.135 1470.98 910.202 1468.21 913.08 C 1457.48 924.215 1414 920.144 1398.5 920.06 L 1329.94 920.163 C 1313.64 936.469 1294.23 957.608 1276.69 971.821 C 1273.89 974.086 1272.18 975.255 1268.52 974.866 C 1264.42 968.906 1266.81 929.735 1266.87 920.089 C 1254.3 919.866 1236.52 923.255 1225.54 915.871 C 1221.86 913.396 1218.04 908.019 1217.3 903.59 C 1215.85 895.024 1216.63 885.201 1216.62 876.519 L 1216.61 826.612 L 1216.61 754.325 C 1216.61 741.443 1215.88 728.083 1217.04 715.265 C 1217.43 710.901 1218.17 707.444 1220.85 703.842 C 1224.8 698.53 1230.12 696.396 1236.4 695.415 z"/>
<path transform="translate(0,0)" fill="rgb(254,253,247)" d="M 1344.01 730.417 L 1347.96 731.316 C 1357.01 737.795 1366.32 768.979 1370.63 780.078 C 1380.87 780.265 1416.17 779.387 1422.65 785.583 C 1424.06 786.93 1424.58 788.402 1424.41 790.335 C 1423.66 798.563 1394.15 821.251 1386.47 827.793 C 1389.39 840.043 1401.32 874.037 1397.81 884.265 C 1396.62 885.452 1396.24 886.269 1394.49 886.537 C 1386.01 887.839 1353.74 862.732 1345.87 856.99 C 1337.79 863.211 1308.42 885.87 1299.88 886.594 C 1297.21 886.821 1296.49 886.179 1294.62 884.411 C 1290.62 874.458 1303.26 839.609 1306.64 827.581 C 1299.39 822.268 1267.69 797.401 1266.78 789.935 C 1266.53 787.858 1267.45 787.126 1268.56 785.549 C 1279.47 779.075 1307.47 780.674 1320.71 780.195 C 1327.29 766.589 1334.5 740.673 1344.01 730.417 z"/>
<path transform="translate(0,0)" fill="rgb(39,95,102)" d="M 847.965 1026.16 C 866.654 1025.92 885.345 1025.86 904.035 1025.98 C 891.268 1066.58 874.28 1093.39 835.707 1113.51 C 827.603 1117.74 819.273 1120.8 810.999 1124.56 C 842.818 1129.75 874.263 1134.15 906.444 1136.5 C 983.903 1142.16 1118.98 1139.81 1192.15 1119.09 C 1153.71 1109.03 1107.99 1102.35 1085.89 1065.08 C 1078.68 1052.92 1075.37 1039.78 1072.61 1026.09 C 1089.72 1025.9 1106.83 1025.87 1123.94 1026 C 1124.29 1027.83 1124.7 1029.65 1125.17 1031.46 C 1139.24 1084.29 1218.62 1070.61 1257.2 1093.6 C 1267.03 1099.46 1271.67 1106.37 1274.53 1117.27 C 1273.7 1120.96 1272.76 1124.7 1271.34 1128.21 C 1264.93 1143.98 1246.31 1153.01 1231.44 1159.15 C 1127.42 1202.11 860.655 1201.83 756.164 1158.15 C 742.9 1152.61 724.857 1144.01 719.49 1129.6 C 717.895 1125.32 717.783 1120.88 719.707 1116.67 C 728.063 1098.43 765.915 1094.3 783.572 1087.74 C 815.706 1075.8 833.711 1057.34 847.965 1026.16 z"/>
<path transform="translate(0,0)" fill="rgb(0,0,0)" d="M 948.213 660.099 C 951.115 659.955 954.579 659.56 957.356 660.53 C 966.521 663.732 975.331 677.314 983.083 683.607 C 1016.54 710.762 1064.91 713.061 1104.94 701.382 C 1114.23 698.673 1123.53 691.633 1132.99 690.925 C 1137.57 690.582 1141.55 691.466 1144.94 694.698 C 1147.71 697.34 1149.19 700.747 1149.1 704.579 C 1148.82 716.378 1136.9 727.338 1128.78 734.719 C 1103.69 754.048 1075.52 759.523 1044.49 759.372 C 1012.88 759.218 980.343 750.761 957.559 727.45 C 944.085 713.664 934.607 692.629 934.943 673.232 C 938.618 666.874 941.793 663.716 948.213 660.099 z"/>
<path transform="translate(0,0)" fill="rgb(0,0,0)" d="M 846.157 307.751 C 864.676 267.532 893.161 228.624 936.305 212.976 C 958.783 204.823 985.755 204.421 1007.67 214.712 C 1020.06 220.533 1032.45 230.19 1037.17 243.503 C 1038.87 248.292 1039.88 253.899 1037.75 258.707 C 1035.62 263.511 1030.53 266.54 1025.71 268.137 C 1016.7 271.124 1006.28 264.624 997.771 262.006 C 950.818 247.56 912.086 277.444 880.96 308.193 C 873.415 313.779 868.504 322.599 860.47 327.736 C 857.564 329.593 854.1 330.858 850.652 329.846 C 847.799 329.008 844.951 326.761 843.635 324.077 C 841.135 318.98 844.284 312.562 846.157 307.751 z"/>
<path transform="translate(0,0)" fill="rgb(0,0,0)" d="M 1230.63 211.297 C 1243.96 208.42 1265.52 211.573 1278.11 215.869 C 1305.87 225.349 1332.57 249.025 1345.41 275.685 C 1347.88 280.819 1350.57 288.737 1348.12 294.307 C 1347.07 296.709 1345.35 298.265 1342.81 298.958 C 1331.6 302.009 1314.36 283.647 1304.95 278.116 C 1278.45 263.051 1249 256.677 1218.97 264.608 C 1210.62 266.814 1202.95 271.194 1194.65 273.26 C 1190.13 274.386 1185.11 274.053 1181.18 271.363 C 1177.07 268.554 1174.91 264 1174.25 259.182 C 1173.13 251.022 1176.4 243.718 1181.27 237.367 C 1192.52 222.672 1212.6 213.54 1230.63 211.297 z"/>
</svg>